<svg xmlns="http://www.w3.org/2000/svg" width="194.594" height="40" viewBox="0 0 194.594 40">
  <g id="Group_1" data-name="Group 1" transform="translate(-0.001)">
    <g id="Group_1177" data-name="Group 1177">
      <path id="Path_3484" data-name="Path 3484" d="M40,20A20,20,0,1,1,20,0,20,20,0,0,1,40,20" fill="#f7931e"/>
      <path id="Path_3485" data-name="Path 3485" d="M75.879,38.968a5.946,5.946,0,0,0-.4-1.231,5.5,5.5,0,0,0-.705-1.163,4.9,4.9,0,0,0-1.042-.983,5.172,5.172,0,0,0-1.4-.683,5.9,5.9,0,0,0-1.8-.255H59.744l-4.472,3.9H70.53a1.585,1.585,0,0,1,1.17.406,1.628,1.628,0,0,1,.4,1.2V50.695a1.435,1.435,0,0,1-1.574,1.574H68.707l-4.472,3.9h6.3a5.81,5.81,0,0,0,1.163-.127,5.971,5.971,0,0,0,1.23-.4,5.682,5.682,0,0,0,1.163-.7,4.732,4.732,0,0,0,.983-1.035,5.133,5.133,0,0,0,.684-1.415,5.948,5.948,0,0,0,.255-1.809V40.131a5.81,5.81,0,0,0-.128-1.163" transform="translate(-40.532 -25.413)" fill="#fff"/>
      <path id="Path_3486" data-name="Path 3486" d="M39.41,52.262V45.413a1.921,1.921,0,0,0-.15-.758,2.031,2.031,0,0,0-.413-.622,1.953,1.953,0,0,0-.622-.429,1.927,1.927,0,0,0-.781-.157H25.124v3.935H35.509v4.891H23.37A1.435,1.435,0,0,1,21.8,50.7V40.161a1.628,1.628,0,0,1,.4-1.2,1.585,1.585,0,0,1,1.17-.406h2.6l4.472-3.9H23.37a5.9,5.9,0,0,0-1.8.255,5.176,5.176,0,0,0-1.4.683,4.9,4.9,0,0,0-1.042.983,5.513,5.513,0,0,0-.705,1.163,5.993,5.993,0,0,0-.4,1.231,5.828,5.828,0,0,0-.127,1.163V50.695a5.948,5.948,0,0,0,.255,1.809,5.133,5.133,0,0,0,.683,1.411,4.745,4.745,0,0,0,.983,1.035,5.683,5.683,0,0,0,1.16.7,5.971,5.971,0,0,0,1.231.4,5.81,5.81,0,0,0,1.163.127h11.56Z" transform="translate(-13.121 -25.413)" fill="#fff"/>
    </g>
    <path id="Path_3487" data-name="Path 3487" d="M216.007,53.781a1.788,1.788,0,0,1-.133.692,1.665,1.665,0,0,1-.918.918,1.781,1.781,0,0,1-.692.133H201.776a5.151,5.151,0,0,1-1.031-.113,5.274,5.274,0,0,1-1.092-.353,5.053,5.053,0,0,1-1.032-.62,4.192,4.192,0,0,1-.871-.919,4.55,4.55,0,0,1-.606-1.251,5.29,5.29,0,0,1-.226-1.6V41.292a5.151,5.151,0,0,1,.113-1.032,5.3,5.3,0,0,1,.353-1.091,4.875,4.875,0,0,1,.625-1.032,4.333,4.333,0,0,1,.925-.872,4.578,4.578,0,0,1,1.244-.606,5.223,5.223,0,0,1,1.6-.226h14.067v3.46H201.776a1.4,1.4,0,0,0-1.038.358,1.443,1.443,0,0,0-.358,1.065v9.351a1.273,1.273,0,0,0,1.4,1.4h10.766V47.726h-9.21V44.239H214.26a1.717,1.717,0,0,1,1.244.519,1.8,1.8,0,0,1,.366.552,1.7,1.7,0,0,1,.133.672Z" transform="translate(-144.407 -26.722)" fill="#f7931e"/>
    <path id="Path_3488" data-name="Path 3488" d="M295.233,58.824a5.351,5.351,0,0,1-.253,1.55,4.635,4.635,0,0,1-.818,1.544,4.567,4.567,0,0,1-1.477,1.191,4.711,4.711,0,0,1-2.218.479h-6.241V60.3h6.241a1.387,1.387,0,0,0,1.092-.429,1.551,1.551,0,0,0,.386-1.073,1.354,1.354,0,0,0-.429-1.065,1.514,1.514,0,0,0-1.044-.386h-6.241a1.386,1.386,0,0,0-1.091.429,1.549,1.549,0,0,0-.386,1.073v4.83a1.368,1.368,0,0,0,.429,1.078,1.547,1.547,0,0,0,1.073.386h6.215v3.3h-6.241a5.34,5.34,0,0,1-1.55-.253,4.619,4.619,0,0,1-1.544-.818,4.554,4.554,0,0,1-1.191-1.477,4.714,4.714,0,0,1-.479-2.218V58.824a5.35,5.35,0,0,1,.253-1.55,4.629,4.629,0,0,1,.818-1.544,4.568,4.568,0,0,1,1.477-1.191,4.711,4.711,0,0,1,2.218-.479h6.241a5.351,5.351,0,0,1,1.55.253,4.637,4.637,0,0,1,1.544.818,4.57,4.57,0,0,1,1.191,1.477,4.717,4.717,0,0,1,.479,2.218" transform="translate(-204.938 -39.643)" fill="#f7931e"/>
    <path id="Path_3489" data-name="Path 3489" d="M359.7,57.522h-7.785a1.461,1.461,0,0,0-1.065.353,1.382,1.382,0,0,0-.358,1.031v9.539h-3.46V58.9a5.21,5.21,0,0,1,.226-1.6,4.569,4.569,0,0,1,.605-1.244,4.193,4.193,0,0,1,.872-.918,5.058,5.058,0,0,1,1.032-.62,5.315,5.315,0,0,1,1.091-.353,5.172,5.172,0,0,1,1.032-.113H359.7Z" transform="translate(-254.49 -39.643)" fill="#f7931e"/>
    <path id="Path_3490" data-name="Path 3490" d="M411.211,63.682a5.358,5.358,0,0,1-.253,1.55,4.645,4.645,0,0,1-.818,1.544,4.564,4.564,0,0,1-1.477,1.19,4.707,4.707,0,0,1-2.218.479H400.2a5.342,5.342,0,0,1-1.55-.253,4.622,4.622,0,0,1-1.544-.818,4.562,4.562,0,0,1-1.191-1.477,4.717,4.717,0,0,1-.479-2.218,5.413,5.413,0,0,1,.253-1.557,4.615,4.615,0,0,1,.818-1.55,4.558,4.558,0,0,1,1.475-1.19A4.711,4.711,0,0,1,400.2,58.9h6.242v3.3H400.2a1.386,1.386,0,0,0-1.091.429,1.549,1.549,0,0,0-.386,1.073,1.313,1.313,0,0,0,.446,1.058,1.579,1.579,0,0,0,1.058.379h6.215a1.4,1.4,0,0,0,1.091-.426,1.527,1.527,0,0,0,.386-1.065V58.825a1.419,1.419,0,0,0-.419-1.078,1.473,1.473,0,0,0-1.058-.4h-7.6V54.06h7.6a5.349,5.349,0,0,1,1.55.253,4.634,4.634,0,0,1,1.544.818,4.567,4.567,0,0,1,1.191,1.477,4.714,4.714,0,0,1,.479,2.218Z" transform="translate(-289.987 -39.644)" fill="#f7931e"/>
    <path id="Path_3491" data-name="Path 3491" d="M516.737,55.526H504.253a5.171,5.171,0,0,1-1.031-.113,5.266,5.266,0,0,1-1.091-.353,5.046,5.046,0,0,1-1.032-.619,4.19,4.19,0,0,1-.871-.919,4.555,4.555,0,0,1-.606-1.251,5.29,5.29,0,0,1-.226-1.6V41.3a5.156,5.156,0,0,1,.113-1.032,5.308,5.308,0,0,1,.353-1.091,4.891,4.891,0,0,1,.625-1.031,4.337,4.337,0,0,1,.925-.872,4.578,4.578,0,0,1,1.244-.606,5.223,5.223,0,0,1,1.6-.226h12.483V39.9H504.253a1.4,1.4,0,0,0-1.038.358,1.443,1.443,0,0,0-.358,1.065v9.348a1.273,1.273,0,0,0,1.4,1.4h12.483Z" transform="translate(-366.221 -26.723)" fill="#296383"/>
    <path id="Path_3492" data-name="Path 3492" d="M589.447,63.587a5.286,5.286,0,0,1-.226,1.6,4.672,4.672,0,0,1-.6,1.251,4.072,4.072,0,0,1-.865.918,5.064,5.064,0,0,1-1.032.619,5.294,5.294,0,0,1-1.091.353,5.233,5.233,0,0,1-1.044.113h-6.242a5.539,5.539,0,0,1-1.57-.253,4.606,4.606,0,0,1-1.574-.832,4.655,4.655,0,0,1-1.211-1.5,4.833,4.833,0,0,1-.487-2.269V58.9a4.8,4.8,0,0,1,.486-2.256,4.66,4.66,0,0,1,1.211-1.5,4.607,4.607,0,0,1,1.574-.832,5.547,5.547,0,0,1,1.57-.253h6.242a4.9,4.9,0,0,1,2.262.479,4.508,4.508,0,0,1,1.5,1.2,4.772,4.772,0,0,1,.832,1.574,5.457,5.457,0,0,1,.26,1.583Zm-3.46-4.658a1.416,1.416,0,0,0-.358-1.065,1.439,1.439,0,0,0-1.039-.343h-6.215a1.44,1.44,0,0,0-1.051.353,1.381,1.381,0,0,0-.358,1.031V63.59a1.4,1.4,0,0,0,.358,1.038,1.424,1.424,0,0,0,1.051.358h6.215a1.4,1.4,0,0,0,1.051-.358,1.438,1.438,0,0,0,.346-1.038Z" transform="translate(-420.567 -39.642)" fill="#296383"/>
    <path id="Path_3493" data-name="Path 3493" d="M647.979,34.381h-3.46V31.253h3.46Zm0,17.341h-3.46V37.335h3.46Z" transform="translate(-472.644 -22.918)" fill="#296383"/>
    <path id="Path_3494" data-name="Path 3494" d="M685.865,68.446H682.4V60.461a3.042,3.042,0,0,0-.233-1.216,2.836,2.836,0,0,0-.632-.925,2.748,2.748,0,0,0-.938-.592,3.232,3.232,0,0,0-1.165-.207h-6.055V68.446h-3.46V55.776a1.7,1.7,0,0,1,.133-.672,1.661,1.661,0,0,1,.372-.546,1.776,1.776,0,0,1,.559-.366,1.749,1.749,0,0,1,.679-.133h7.8a6.953,6.953,0,0,1,1.378.143,6.581,6.581,0,0,1,1.437.472,6.962,6.962,0,0,1,1.359.825,5.534,5.534,0,0,1,1.145,1.211,5.949,5.949,0,0,1,.792,1.645,7,7,0,0,1,.293,2.1Z" transform="translate(-491.273 -39.644)" fill="#296383"/>
  </g>
</svg>
